<?xml version="1.0" encoding="UTF-8" standalone="no"?><!DOCTYPE svg PUBLIC "-//W3C//DTD SVG 1.1//EN" "http://www.w3.org/Graphics/SVG/1.1/DTD/svg11.dtd"><svg width="100%" height="100%" viewBox="0 0 1879 2048" version="1.1" xmlns="http://www.w3.org/2000/svg" xmlns:xlink="http://www.w3.org/1999/xlink" xml:space="preserve" xmlns:serif="http://www.serif.com/" style="fill-rule:evenodd;clip-rule:evenodd;stroke-linejoin:round;stroke-miterlimit:2;"><path d="M939.35,2047.95c179.726,0 125.369,-512.459 125.369,-512.459c214.521,411.37 424.495,526.849 499.725,474.476c48.311,-33.639 27.765,-105.994 -20.202,-169.101c-47.951,-63.09 -269.346,-361.998 -269.346,-361.998c396.309,338.953 575.519,207.99 582.628,147.524c7.124,-60.481 -115.635,-111.291 -260.566,-169.773c-156.851,-63.278 -232.144,-216.301 -232.144,-216.301c547.754,-638.188 58.497,-1240.27 -425.464,-1240.27c-483.945,0 -973.218,602.08 -425.448,1240.25c0,0 -75.309,153.039 -232.161,216.317c-144.93,58.466 -267.674,109.292 -260.565,169.758c7.109,60.481 186.335,191.444 582.628,-147.509c0,0 -221.396,298.892 -269.346,361.998c-47.951,63.091 -68.497,135.462 -20.187,169.101c75.215,52.373 285.189,-63.106 499.71,-474.492c0,0.016 -54.357,512.475 125.369,512.475l0,0.004Zm523.151,-793.146c54.946,3.606 122.685,-0.05 173.252,-29.126c101.152,-58.169 168.961,-115.917 222.068,-65.341c38.711,36.868 42.677,164.897 -160.948,232.459c-80.689,-16.367 -197.311,-86.971 -234.372,-137.992Zm-1280.67,137.991c-203.63,-67.561 -199.664,-195.59 -160.953,-232.458c53.107,-50.576 120.916,7.172 222.067,65.341c50.568,29.076 118.307,32.732 173.253,29.126c-37.061,51.005 -153.551,121.548 -234.367,137.991Zm862.344,-395.056c3.474,0 6.791,-1.443 9.16,-3.983c2.369,-2.541 3.576,-5.951 3.334,-9.416c-3.398,-48.542 -21.257,-207.946 -23.744,-243.481c-0.292,-4.197 1.542,-8.26 4.883,-10.816c37.459,-29.26 61.534,-74.852 61.534,-126.022c0,-88.303 -71.69,-159.993 -159.992,-159.993c-88.303,0 -159.993,71.69 -159.993,159.993c0,51.171 24.076,96.763 61.508,126.058c3.328,2.548 5.154,6.596 4.861,10.777c-2.438,35.539 -20.297,194.942 -23.695,243.484c-0.242,3.465 0.965,6.875 3.334,9.416c2.369,2.54 5.686,3.983 9.16,3.983l209.65,0Z" style="fill:#06f;"/><path d="M1392.91,1246.19c17.536,3.178 41.985,6.81 69.589,8.609c37.061,51.005 153.551,121.548 234.372,137.992c-43.018,14.434 -95.463,26.061 -159.349,33.591c-151.785,-61.014 -188.869,-181.118 -172.726,-186.085l28.114,5.893Z" style="fill:#1a1f33;"/><path d="M513.902,1240.3c15.904,12.157 -25.041,129.787 -172.723,186.083c-63.624,-7.499 -116.225,-19.167 -159.347,-33.59c80.684,-16.366 197.306,-86.97 234.367,-137.991c53.404,-3.499 94.855,-13.784 97.703,-14.502Z" style="fill:#1a1f33;"/><path d="M30.535,1649.19c41.81,61.56 222.489,129.713 573.269,-170.32c-34.655,-34.232 -88.543,-39.56 -129.213,-12.749c-177.069,116.822 -350.201,164.445 -444.056,183.069Z" style="fill:#1a1f33;fill-rule:nonzero;"/><path d="M813.981,1535.49c-52.357,-23.499 -113.963,-5.141 -145.024,43.123c-67.512,104.916 -199.053,284.033 -376.107,406.027c4.469,9.796 11.453,18.389 21.405,25.326c75.231,52.373 285.205,-63.106 499.726,-474.476Z" style="fill:#1a1f33;fill-rule:nonzero;"/><path d="M1848.16,1649.19c-41.811,61.56 -222.489,129.713 -573.269,-170.32c34.655,-34.232 88.558,-39.56 129.212,-12.749c177.07,116.822 350.202,164.445 444.057,183.069Z" style="fill:#1a1f33;fill-rule:nonzero;"/><path d="M1064.72,1535.49c52.357,-23.499 113.963,-5.141 145.024,43.123c67.512,104.916 199.053,284.033 376.107,406.027c-4.469,9.796 -11.453,18.389 -21.406,25.326c-75.23,52.373 -285.204,-63.106 -499.725,-474.476Z" style="fill:#1a1f33;fill-rule:nonzero;"/><path d="M939.35,1897.97c-98.792,0 -126.853,-117.338 -132.087,-256.784c-5.063,150.024 4.859,406.761 132.087,406.761c127.228,0 137.149,-256.737 132.087,-406.761c-5.234,139.446 -33.295,256.784 -132.087,256.784Z" style="fill:#1a1f33;fill-rule:nonzero;"/></svg>