<?xml version="1.0" encoding="UTF-8" standalone="no"?>
<!DOCTYPE svg PUBLIC "-//W3C//DTD SVG 1.1//EN" "http://www.w3.org/Graphics/SVG/1.1/DTD/svg11.dtd">
<svg width="100%" height="100%" viewBox="0 0 430 460" version="1.1" xmlns="http://www.w3.org/2000/svg" xmlns:xlink="http://www.w3.org/1999/xlink" xml:space="preserve" xmlns:serif="http://www.serif.com/" style="fill-rule:evenodd;clip-rule:evenodd;stroke-linejoin:round;stroke-miterlimit:2;">
    <g id="_1" serif:id="1" transform="matrix(1.4,0,0,1.4,-793.004,-400.002)">
        <g transform="matrix(1,0,0,1,0.499987,65.8816)">
            <path d="M719.5,547.634C748.201,547.634 739.52,465.799 739.52,465.799C773.777,531.491 807.309,549.932 819.322,541.569C827.037,536.197 823.756,524.642 816.096,514.565C808.439,504.49 773.084,456.757 773.084,456.757C836.371,510.885 864.989,489.971 866.124,480.315C867.262,470.657 847.659,462.543 824.514,453.204C799.467,443.099 787.443,418.662 787.443,418.662C874.915,316.749 796.784,220.602 719.5,220.602C642.218,220.602 564.085,316.749 651.56,418.66C651.56,418.66 639.533,443.099 614.486,453.204C591.341,462.541 571.74,470.657 572.876,480.313C574.011,489.971 602.632,510.885 665.916,456.757C665.916,456.757 630.561,504.487 622.904,514.565C615.247,524.64 611.966,536.197 619.68,541.569C631.691,549.932 665.223,531.491 699.48,465.797C699.48,465.799 690.799,547.634 719.5,547.634ZM803.043,420.976C811.817,421.552 822.634,420.968 830.71,416.325C846.863,407.036 857.691,397.814 866.172,405.89C872.354,411.778 872.987,432.223 840.47,443.012C827.585,440.398 808.961,429.123 803.043,420.976ZM598.531,443.012C566.013,432.223 566.646,411.778 572.828,405.89C581.309,397.814 592.137,407.036 608.29,416.325C616.366,420.968 627.183,421.552 635.957,420.976C630.039,429.121 611.437,440.386 598.531,443.012ZM736.24,379.925C736.795,379.925 737.324,379.694 737.703,379.289C738.081,378.883 738.274,378.338 738.235,377.785C737.692,370.033 734.84,344.578 734.443,338.903C734.397,338.233 734.69,337.584 735.223,337.176C741.205,332.504 745.049,325.223 745.049,317.051C745.049,302.95 733.601,291.502 719.5,291.502C705.399,291.502 693.951,302.95 693.951,317.051C693.951,325.223 697.795,332.504 703.773,337.182C704.304,337.589 704.596,338.235 704.549,338.903C704.16,344.578 701.308,370.033 700.765,377.785C700.727,378.338 700.919,378.883 701.298,379.289C701.676,379.694 702.206,379.925 702.761,379.925C709.128,379.925 729.873,379.925 736.24,379.925Z" style="fill:rgb(160,175,207);"/>
        </g>
        <g transform="matrix(0.638734,0,0,0.638734,555.948,286.484)">
            <path d="M370.236,311.551C374.62,312.346 380.733,313.254 387.634,313.704C396.9,326.456 426.024,344.092 446.23,348.204C435.475,351.812 422.363,354.719 406.391,356.602C368.442,341.347 359.171,311.32 363.207,310.078L370.236,311.551Z" style="fill:rgb(68,89,136);"/>
        </g>
        <g transform="matrix(-0.638734,0,0,0.638734,884.052,286.484)">
            <path d="M363.207,310.078C359.231,313.117 369.468,342.526 406.39,356.601C422.297,354.726 435.448,351.809 446.229,348.203C426.056,344.112 396.9,326.46 387.634,313.704C374.282,312.829 363.919,310.258 363.207,310.078Z" style="fill:rgb(68,89,136);"/>
        </g>
        <g transform="matrix(0.638734,0,0,0.638734,555.948,286.484)">
            <path d="M29.625,412.305C40.078,427.695 85.25,444.734 172.949,369.723C164.285,361.164 150.813,359.832 140.645,366.535C96.375,395.742 53.09,407.648 29.625,412.305Z" style="fill:rgb(68,89,136);fill-rule:nonzero;"/>
        </g>
        <g transform="matrix(0.638734,0,0,0.638734,555.948,286.484)">
            <path d="M225.496,383.879C212.406,378.004 197.004,382.594 189.238,394.66C172.359,420.891 139.473,465.672 95.207,496.172C96.324,498.621 98.07,500.77 100.559,502.504C119.367,515.598 171.863,486.727 225.496,383.879Z" style="fill:rgb(68,89,136);fill-rule:nonzero;"/>
        </g>
        <g transform="matrix(0.638734,0,0,0.638734,555.948,286.484)">
            <path d="M484.055,412.305C473.602,427.695 428.43,444.734 340.73,369.723C349.395,361.164 362.871,359.832 373.035,366.535C417.305,395.742 460.59,407.648 484.055,412.305Z" style="fill:rgb(68,89,136);fill-rule:nonzero;"/>
        </g>
        <g transform="matrix(0.638734,0,0,0.638734,555.948,286.484)">
            <path d="M288.184,383.879C301.273,378.004 316.676,382.594 324.441,394.66C341.32,420.891 374.207,465.672 418.473,496.172C417.355,498.621 415.609,500.77 413.121,502.504C394.313,515.598 341.816,486.727 288.184,383.879Z" style="fill:rgb(68,89,136);fill-rule:nonzero;"/>
        </g>
        <g transform="matrix(0.638734,0,0,0.638734,555.948,286.484)">
            <path d="M256.84,474.504C232.141,474.504 225.125,445.168 223.816,410.305C222.551,447.812 225.031,512 256.84,512C288.648,512 291.129,447.812 289.863,410.305C288.555,445.168 281.539,474.504 256.84,474.504Z" style="fill:rgb(68,89,136);fill-rule:nonzero;"/>
        </g>
    </g>
</svg>
