<?xml version="1.0" encoding="UTF-8" standalone="no"?><!DOCTYPE svg PUBLIC "-//W3C//DTD SVG 1.1//EN" "http://www.w3.org/Graphics/SVG/1.1/DTD/svg11.dtd"><svg width="100%" height="100%" viewBox="0 0 2367 2048" version="1.1" xmlns="http://www.w3.org/2000/svg" xmlns:xlink="http://www.w3.org/1999/xlink" xml:space="preserve" xmlns:serif="http://www.serif.com/" style="fill-rule:evenodd;clip-rule:evenodd;stroke-linejoin:round;stroke-miterlimit:2;"><path d="M209.392,1936.28c120.558,0 209.359,-88.801 209.359,-210.44c0,-121.64 -88.801,-210.439 -209.359,-210.439c-120.558,0 -209.36,89.383 -209.36,210.439c0,121.055 88.802,210.44 209.36,210.44Zm0,-66.578c-78.334,0 -136.669,-60.235 -136.669,-143.862c0,-83.628 58.335,-143.861 136.669,-143.861c78.335,0 136.668,60.233 136.668,143.861c0,83.627 -58.333,143.862 -136.668,143.862Z" style="fill:#1a1f33;fill-rule:nonzero;"/><path d="M602.646,1934.53c57.764,0 103.864,-26.279 126.636,-73.013l-53.321,-32.753c-17.773,29.829 -44.433,43.281 -73.871,43.281c-51.099,0 -89.978,-36.848 -89.978,-97.675c0,-60.242 38.879,-97.673 89.978,-97.673c29.438,0 56.098,13.451 73.871,43.279l53.321,-32.753c-22.772,-47.316 -68.872,-72.427 -126.636,-72.427c-93.863,0 -160.448,65.993 -160.448,159.574c0,93.581 66.585,160.16 160.448,160.16Z" style="fill:#1a1f33;fill-rule:nonzero;"/><path d="M952.123,1861.51c-10.553,8.773 -24.439,12.867 -38.88,12.867c-26.66,0 -41.101,-16.376 -41.101,-46.79l0,-148.558l79.426,0l0,-58.392l-79.426,0l0,-71.328l-69.358,0l0,71.328l-48.877,0l0,58.392l48.877,0l0,150.313c0,68.977 37.176,105.182 102.128,105.182c24.994,0 49.988,-7.007 66.651,-21.022l-19.44,-51.992Z" style="fill:#1a1f33;fill-rule:nonzero;"/><path d="M1134.19,1934.53c92.231,0 158.261,-66.579 158.261,-160.16c0,-93.581 -66.03,-159.574 -158.261,-159.574c-91.121,0 -157.705,65.993 -157.705,159.574c0,93.581 66.584,160.16 157.705,160.16Zm0,-62.485c-50.008,0 -87.792,-38.017 -87.792,-97.675c0,-59.658 37.784,-97.673 87.792,-97.673c50.564,0 88.347,38.015 88.347,97.673c0,59.658 -37.783,97.675 -88.347,97.675Z" style="fill:#1a1f33;fill-rule:nonzero;"/><path d="M1433.38,1934.53c83.336,0 134.383,-37.956 134.383,-96.477c0,-122.173 -183.29,-66.08 -183.29,-129.191c0,-20.468 20.007,-35.089 62.245,-35.089c28.343,0 56.682,5.849 84.979,23.393l26.633,-55.509c-26.633,-16.934 -71.598,-26.861 -111.057,-26.861c-80,0 -130.492,38.54 -130.492,97.575c0,124.51 183.29,68.356 183.29,128.026c0,21.68 -18.341,34.571 -62.245,34.571c-37.236,0 -77.211,-12.891 -103.29,-31.055l-26.642,55.58c26.642,19.854 76.025,35.037 125.486,35.037Z" style="fill:#1a1f33;fill-rule:nonzero;"/><rect x="1606.18" y="1618.3" width="69.358" height="312.133" style="fill:#1a1f33;"/><path d="M1641.14,1566.78c26.084,0 44.399,-19.861 44.399,-45.564c0,-23.951 -18.87,-42.061 -44.399,-42.061c-25.53,0 -44.4,19.278 -44.4,43.813c0,24.535 18.87,43.812 44.4,43.812Z" style="fill:#1a1f33;fill-rule:nonzero;"/><path d="M1964.69,1618.3l0,41.458c-24.448,-30.951 -61.12,-44.966 -102.792,-44.966c-85.006,0 -149.926,59.565 -149.926,150.22c0,90.657 64.92,151.39 149.926,151.39c40.005,0 75.01,-13.432 99.458,-41.462l0,16.351c0,63.153 -28.893,94.758 -94.458,94.758c-41.117,0 -83.345,-14.632 -109.426,-37.458l-31.073,54.976c33.847,29.199 88.825,44.382 144.389,44.382c103.889,0 159.928,-51.389 159.928,-164.834l0,-264.815l-66.026,0Zm-92.235,236.201c-52.786,0 -90.569,-36.249 -90.569,-89.452c0,-52.678 37.783,-88.356 90.569,-88.356c52.229,0 90.012,35.678 90.012,88.319c0,53.24 -37.783,89.489 -90.012,89.489Z" style="fill:#1a1f33;fill-rule:nonzero;"/><path d="M2242.55,1614.79c-43.343,0 -79.462,15.184 -102.24,43.799l0,-40.291l-66.029,0l0,312.133l69.358,0l0,-157.821c0,-62.594 33.341,-94.165 82.796,-94.165c44.454,0 70.571,26.894 70.571,82.436l0,169.55l69.358,0l0,-178.904c0,-94.106 -52.713,-136.737 -123.814,-136.737Z" style="fill:#1a1f33;fill-rule:nonzero;"/><path d="M1180.96,1465.71c128.628,0 89.725,-366.761 89.725,-366.761c153.53,294.413 303.806,377.06 357.648,339.577c34.575,-24.075 19.871,-75.859 -14.458,-121.023c-34.318,-45.153 -192.768,-259.078 -192.768,-259.078c283.633,242.584 411.892,148.856 416.98,105.581c5.099,-43.286 -82.759,-79.65 -186.484,-121.504c-112.257,-45.288 -166.144,-154.805 -166.144,-154.805c392.022,-456.743 41.866,-887.645 -304.499,-887.645c-346.354,0 -696.521,430.902 -304.488,887.634c0,0 -53.898,109.528 -166.155,154.816c-103.725,41.843 -191.571,78.218 -186.483,121.493c5.088,43.286 133.357,137.014 416.98,-105.57c0,0 -158.45,213.913 -192.768,259.078c-34.318,45.153 -49.022,96.948 -14.447,121.023c53.83,37.483 204.106,-45.164 357.636,-339.588c0,0.011 -38.902,366.772 89.725,366.772Zm374.413,-567.645c39.324,2.581 87.804,-0.036 123.995,-20.846c72.393,-41.63 120.923,-82.959 158.931,-46.763c27.705,26.386 30.544,118.015 -115.189,166.368c-57.748,-11.714 -141.212,-62.244 -167.737,-98.759Zm-916.559,98.758c-145.737,-48.352 -142.898,-139.981 -115.193,-166.367c38.008,-36.196 86.538,5.133 158.931,46.763c36.191,20.81 84.671,23.427 123.995,20.846c-26.524,36.504 -109.895,86.99 -167.733,98.758Zm617.169,-282.737c2.486,0 4.86,-1.032 6.556,-2.85c1.695,-1.819 2.559,-4.259 2.386,-6.739c-2.432,-34.741 -15.214,-148.825 -16.994,-174.257c-0.209,-3.003 1.104,-5.911 3.495,-7.74c26.809,-20.941 44.039,-53.571 44.039,-90.193c0,-63.197 -51.308,-114.505 -114.504,-114.505c-63.197,0 -114.505,51.308 -114.505,114.505c0,36.622 17.23,69.252 44.02,90.218c2.382,1.824 3.689,4.721 3.48,7.713c-1.746,25.435 -14.527,139.518 -16.959,174.259c-0.173,2.48 0.691,4.92 2.386,6.739c1.696,1.818 4.07,2.85 6.556,2.85l150.044,0Z" style="fill:#06f;"/><path d="M1505.57,891.901c12.549,2.275 30.047,4.874 49.803,6.162c26.524,36.504 109.895,86.99 167.737,98.759c-30.787,10.33 -68.322,18.652 -114.044,24.04c-108.631,-43.667 -135.171,-129.623 -123.618,-133.178l20.122,4.217Z" style="fill:#1a1f33;"/><path d="M876.471,887.684c11.382,8.7 -17.921,92.887 -123.616,133.177c-45.534,-5.367 -83.181,-13.717 -114.042,-24.04c57.744,-11.713 141.209,-62.243 167.733,-98.758c38.221,-2.504 67.887,-9.865 69.925,-10.379Z" style="fill:#1a1f33;"/><path d="M530.531,1180.32c29.923,44.057 159.233,92.834 410.282,-121.896c-24.802,-24.5 -63.369,-28.313 -92.476,-9.124c-126.727,83.608 -250.635,117.691 -317.806,131.02Z" style="fill:#1a1f33;fill-rule:nonzero;"/><path d="M1091.23,1098.95c-37.471,-16.818 -81.562,-3.679 -103.792,30.863c-48.318,75.087 -142.46,203.279 -269.175,290.588c3.198,7.012 8.196,13.162 15.319,18.126c53.842,37.483 204.118,-45.164 357.648,-339.577Z" style="fill:#1a1f33;fill-rule:nonzero;"/><path d="M1831.39,1180.32c-29.923,44.057 -159.232,92.834 -410.281,-121.896c24.801,-24.5 63.38,-28.313 92.475,-9.124c126.727,83.608 250.636,117.691 317.806,131.02Z" style="fill:#1a1f33;fill-rule:nonzero;"/><path d="M1270.68,1098.95c37.471,-16.818 81.562,-3.679 103.792,30.863c48.318,75.087 142.46,203.279 269.175,290.588c-3.198,7.012 -8.196,13.162 -15.319,18.126c-53.842,37.483 -204.118,-45.164 -357.648,-339.577Z" style="fill:#1a1f33;fill-rule:nonzero;"/><path d="M1180.96,1358.37c-70.704,0 -90.787,-83.977 -94.533,-183.777c-3.623,107.37 3.477,291.114 94.533,291.114c91.056,0 98.156,-183.744 94.533,-291.114c-3.746,99.8 -23.829,183.777 -94.533,183.777Z" style="fill:#1a1f33;fill-rule:nonzero;"/></svg>